<?xml version="1.0" standalone="no"?>
<!DOCTYPE svg PUBLIC "-//W3C//DTD SVG 20010904//EN"
 "http://www.w3.org/TR/2001/REC-SVG-20010904/DTD/svg10.dtd">
<svg version="1.0" xmlns="http://www.w3.org/2000/svg"
 width="700.000000pt" height="700.000000pt" viewBox="0 0 700.000000 700.000000"
 preserveAspectRatio="xMidYMid meet">
<metadata>
Created by potrace 1.14, written by Peter Selinger 2001-2017
</metadata>
<g transform="translate(0.000000,700.000000) scale(0.100000,-0.100000)"
fill="#000000" stroke="none">
<path d="M3100 6989 c-30 -4 -66 -10 -80 -13 -14 -2 -32 -5 -41 -5 -29 -2 -30
-31 -2 -79 172 -304 282 -646 423 -1322 66 -319 140 -615 189 -765 90 -274
223 -518 362 -666 54 -57 60 -66 53 -83 -9 -23 -35 -20 -82 12 -150 101 -300
312 -406 572 -15 36 -31 74 -36 85 -33 76 -128 366 -204 625 -77 262 -161 526
-208 655 -125 339 -267 601 -426 783 -87 100 -80 98 -213 55 -63 -20 -118 -38
-124 -39 -24 -7 -151 -56 -190 -74 -24 -11 -46 -20 -49 -20 -33 0 -471 -234
-480 -255 -2 -7 57 -75 133 -152 75 -76 172 -185 214 -243 43 -58 82 -110 86
-116 27 -34 164 -274 208 -364 83 -173 194 -456 243 -625 6 -22 17 -60 25 -85
7 -25 42 -154 79 -286 94 -345 158 -516 277 -744 121 -230 241 -395 413 -565
212 -210 438 -332 701 -380 95 -17 349 -14 437 5 63 14 93 4 81 -27 -12 -31
-182 -92 -328 -118 -266 -47 -546 -6 -787 116 -55 28 -194 114 -208 129 -3 3
-26 22 -53 43 -283 228 -550 648 -732 1152 -41 113 -49 125 -79 125 -39 0 -49
-15 -54 -86 -8 -95 -7 -334 2 -423 30 -320 138 -679 286 -947 29 -51 141 -231
162 -259 217 -285 398 -457 665 -632 62 -40 115 -73 118 -73 3 0 24 -12 46
-27 29 -19 39 -32 37 -47 -4 -28 -32 -28 -138 2 -401 112 -738 353 -1035 740
-163 213 -349 551 -469 852 -45 112 -58 137 -80 144 -28 11 -72 -6 -73 -27 -1
-7 -8 -57 -17 -112 -36 -230 -40 -570 -10 -797 6 -43 37 -226 49 -283 40 -201
150 -484 260 -671 54 -91 140 -222 155 -234 3 -3 23 -27 45 -55 49 -63 224
-238 290 -290 27 -22 56 -46 63 -53 49 -46 412 -272 437 -272 3 0 51 -22 109
-50 156 -75 150 -57 151 -403 1 -257 2 -280 19 -292 10 -8 23 -12 29 -10 7 2
28 6 47 9 124 19 276 68 388 125 106 55 97 22 98 333 2 318 -5 361 -67 432
-33 37 -130 96 -159 96 -18 0 -326 133 -442 190 -115 58 -277 148 -288 159 -3
4 -44 32 -92 64 -91 61 -230 178 -311 262 -111 114 -245 299 -298 408 -23 47
-23 49 -5 62 24 18 43 6 79 -51 67 -103 234 -259 387 -361 157 -105 421 -221
570 -249 14 -3 39 -9 55 -14 31 -9 141 -26 235 -36 71 -7 264 -7 315 0 22 3
64 8 94 11 30 4 63 9 75 11 12 2 37 7 56 10 19 3 73 17 120 31 400 115 747
355 1046 723 82 102 214 292 214 310 0 6 -11 22 -25 36 -29 29 -36 27 -130
-45 -490 -377 -1166 -514 -1660 -338 -144 51 -314 169 -355 246 -11 21 -10 26
6 38 10 7 25 10 34 7 22 -10 155 -42 238 -59 117 -23 208 -30 362 -29 226 3
382 40 585 140 197 96 370 246 539 464 29 38 137 211 145 233 5 14 15 28 20
32 18 10 12 43 -10 64 -24 22 -17 23 -164 -17 -60 -17 -123 -33 -140 -36 -244
-42 -332 -50 -535 -49 -522 5 -893 279 -1175 867 -82 172 -157 369 -266 704
-160 489 -207 626 -276 800 -36 90 -62 169 -59 177 3 8 15 15 26 15 17 0 32
-22 76 -117 86 -184 102 -222 264 -618 199 -486 303 -707 421 -897 209 -334
458 -534 742 -595 113 -24 316 -23 467 3 109 19 344 108 391 148 24 20 24 62
1 75 -10 5 -47 15 -82 21 -141 25 -316 100 -440 188 -147 103 -308 297 -379
456 -36 80 -38 92 -12 106 17 8 29 1 83 -51 256 -248 479 -379 652 -383 60 -1
70 2 83 21 14 21 12 25 -45 85 -252 262 -447 691 -469 1028 -4 71 -2 88 11 99
9 7 21 11 28 8 7 -2 31 -60 53 -128 86 -266 254 -533 391 -619 28 -18 32 -18
52 -4 28 19 28 40 0 84 -68 111 -144 299 -167 410 -21 106 -24 136 -24 240 -1
134 8 202 39 319 66 252 183 470 426 795 48 65 88 124 88 132 0 25 -248 137
-480 216 -144 49 -327 98 -344 92 -14 -5 -135 -251 -189 -384 -61 -150 -135
-398 -151 -504 -4 -21 -8 -41 -10 -45 -2 -3 -6 -30 -10 -58 -3 -29 -9 -77 -13
-105 -9 -70 -10 -336 -1 -418 14 -130 49 -285 88 -398 21 -60 18 -82 -14 -82
-14 0 -30 14 -47 43 -92 147 -144 320 -169 562 -8 80 -5 568 4 615 2 14 7 61
11 104 4 43 8 86 10 95 1 9 6 41 10 71 3 30 8 66 10 80 2 14 6 43 9 65 7 48
17 114 22 137 24 134 47 289 42 294 -4 3 -24 10 -45 14 -47 11 -828 10 -903
-1z"/>
</g>
</svg>
